<svg height="485pt" viewBox="0 -2 485.072 485" width="485pt" xmlns="http://www.w3.org/2000/svg"><path d="m338.558594 403.394531v-.015625h-.007813zm0 0"/><path d="m199.679688 68.597656-.054688.0625.054688-.015625zm0 0"/><g fill="#9bc9ff"><path d="m373.601562 121.636719c1.871094 1.972656 3.699219 3.992187 5.488282 6.0625-1.773438-2.074219-3.601563-4.09375-5.488282-6.0625zm0 0"/><path d="m423.390625 262.386719c-.207031 2.625-.453125 5.226562-.796875 7.816406.34375-2.589844.605469-5.191406.796875-7.816406zm0 0"/><path d="m424 248.035156c0 3.710938-.144531 7.394532-.359375 11.050782.214844-3.65625.359375-7.339844.359375-11.050782zm0 0"/><path d="m420.40625 284.324219c-.710938 3.542969-1.527344 7.0625-2.398438 10.535156.886719-3.480469 1.683594-6.992187 2.398438-10.535156zm0 0"/><path d="m366.023438 114.035156c2.132812 1.984375 4.195312 4.015625 6.183593 6.097656-2.015625-2.082031-4.078125-4.113281-6.183593-6.097656zm0 0"/><path d="m422.183594 273.636719c-.390625 2.839843-.863282 5.65625-1.382813 8.457031.519531-2.777344.992188-5.59375 1.382813-8.457031zm0 0"/><path d="m423.679688 237.539062c.199218 3.472657.320312 6.96875.320312 10.496094 0-3.527344-.121094-7.023437-.320312-10.496094zm0 0"/><path d="m380.449219 129.21875c1.949219 2.304688 3.84375 4.65625 5.679687 7.050781-1.839844-2.402343-3.734375-4.75-5.679687-7.050781zm0 0"/><path d="m419.199219 206.195312c.535156 2.296876 1.039062 4.601563 1.488281 6.929688-.488281-2.328125-.992188-4.632812-1.488281-6.929688zm0 0"/><path d="m412.457031 183.8125c2.363281 6.339844 4.367188 12.804688 6.007813 19.367188-1.636719-6.5625-3.640625-13.03125-6.007813-19.367188zm0 0"/><path d="m399.199219 155.796875c1.300781 2.238281 2.558593 4.507813 3.769531 6.808594-1.214844-2.304688-2.472656-4.574219-3.769531-6.808594zm0 0"/><path d="m408.65625 174.4375c1.023438 2.351562 1.996094 4.726562 2.917969 7.125-.925781-2.386719-1.898438-4.765625-2.917969-7.125zm0 0"/><path d="m417.441406 296.722656c-.785156 2.855469-1.632812 5.6875-2.546875 8.496094.914063-2.804688 1.761719-5.636719 2.546875-8.496094zm0 0"/><path d="m422.785156 227.140625c.261719 2.351563.472656 4.71875.648438 7.09375-.175782-2.375-.386719-4.742187-.648438-7.09375zm0 0"/><path d="m386.710938 137.011719c4.109374 5.417969 7.914062 11.0625 11.394531 16.902343-3.480469-5.839843-7.285157-11.484374-11.394531-16.902343zm0 0"/><path d="m421.304688 216.773438c.375 2.191406.703124 4.398437 1.007812 6.613281-.304688-2.214844-.632812-4.421875-1.007812-6.613281zm0 0"/><path d="m413.976562 307.914062c-.921874 2.699219-1.914062 5.363282-2.953124 8 1.039062-2.644531 2.03125-5.300781 2.953124-8zm0 0"/><path d="m95.816406 362.285156c6.535156 8.246094 13.761719 15.925782 21.597656 22.949219-7.832031-7.023437-15.058593-14.703125-21.597656-22.949219zm0 0"/><path d="m365.054688 113.117188c-5.996094-5.554688-12.351563-10.707032-19.03125-15.417969 1.023437.722656 2.054687 1.433593 3.066406 2.175781 5.566406 4.109375 10.898437 8.53125 15.964844 13.242188zm0 0"/><path d="m394.246094 348.300781c-6.039063 9.273438-12.902344 17.984375-20.503906 26.03125 7.601562-8.046875 14.464843-16.757812 20.503906-26.03125zm0 0"/><path d="m124.921875 391.554688c-2.402344-1.933594-4.800781-3.917969-7.089844-5.976563 2.316407 2.050781 4.675781 4.042969 7.089844 5.976563zm0 0"/><path d="m338.558594 403.378906c12.722656-8.09375 24.40625-17.710937 34.792968-28.640625-10.386718 10.929688-22.070312 20.546875-34.792968 28.640625zm0 0"/><path d="m132.800781 397.546875c-2.058593-1.472656-4.082031-2.984375-6.066406-4.542969 2.007813 1.550782 4.027344 3.066406 6.066406 4.542969zm0 0"/><path d="m141.335938 403.316406c-2.089844-1.335937-4.152344-2.695312-6.183594-4.105468 2.03125 1.410156 4.09375 2.769531 6.183594 4.105468zm0 0"/><path d="m410.207031 317.957031c-2.753906 6.703125-5.90625 13.238281-9.4375 19.566407 3.53125-6.328126 6.683594-12.863282 9.4375-19.566407zm0 0"/><path d="m404.296875 165.210938c1.066406 2.132812 2.105469 4.304687 3.117187 6.511718-.996093-2.191406-2.035156-4.359375-3.117187-6.511718zm0 0"/><path d="m400 338.804688c-1.601562 2.773437-3.199219 5.511718-4.945312 8.191406 1.746093-2.6875 3.402343-5.417969 4.945312-8.191406zm0 0"/><path d="m199.625 68.660156c-78.097656 17.578125-135.871094 83.632813-142.890625 163.375h21.378906c6.058594 0 11.601563 3.425782 14.3125 8.847656l9.367188 18.730469c1.351562 2.707031 4.121093 4.421875 7.152343 4.421875h8.445313c2.511719.003906 4.878906-1.175781 6.390625-3.179687 1.515625-2.007813 1.996094-4.605469 1.308594-7.019531l-10.179688-35.601563c-.6875-2.414063-.207031-5.011719 1.308594-7.015625 1.511719-2.007812 3.878906-3.183594 6.390625-3.183594h15.789063c3.636718.003906 7.164062-1.234375 10-3.503906l26.113281-20.886719c5.613281-4.503906 7.53125-12.199219 4.6875-18.808593l-13.703125-32c-3.140625-7.347657-.375-15.882813 6.472656-20l20.152344-12.089844c4.878906-2.925782 7.835937-8.222656 7.765625-13.910156l-.214844-18.207032zm0 0"/><path d="m402.953125 162.605469c.453125.863281.894531 1.734375 1.34375 2.605469-.449219-.871094-.890625-1.742188-1.34375-2.605469zm0 0"/><path d="m365.054688 113.117188c.328124.292968.640624.613281.96875.917968-.328126-.304687-.640626-.625-.96875-.917968zm0 0"/><path d="m398.105469 153.914062c.367187.625.71875 1.257813 1.078125 1.882813-.359375-.625-.710938-1.257813-1.078125-1.882813zm0 0"/><path d="m344.246094 96.4375c.601562.414062 1.1875.796875 1.777344 1.261719-.589844-.414063-1.175782-.863281-1.777344-1.261719zm0 0"/><path d="m372.207031 120.132812 1.417969 1.488282zm0 0"/><path d="m379.113281 127.683594c.445313.511718.894531 1.015625 1.335938 1.535156-.449219-.519531-.890625-1.023438-1.335938-1.535156zm0 0"/><path d="m386.128906 136.269531.582032.742188zm0 0"/><path d="m411.023438 315.90625c-.269532.683594-.535157 1.371094-.800782 2.050781.265625-.679687.53125-1.367187.800782-2.050781zm0 0"/><path d="m417.96875 294.859375c-.160156.625-.359375 1.242187-.527344 1.863281.160156-.621094.367188-1.238281.527344-1.863281zm0 0"/><path d="m420.800781 282.117188c-.136719.734374-.25 1.472656-.394531 2.207031.144531-.734375.257812-1.472657.394531-2.207031zm0 0"/><path d="m414.894531 305.21875c-.292969.90625-.605469 1.800781-.917969 2.695312.3125-.894531.625-1.789062.917969-2.695312zm0 0"/><path d="m422.625 270.203125c-.136719 1.152344-.28125 2.304687-.441406 3.457031.160156-1.152344.304687-2.304687.441406-3.457031zm0 0"/><path d="m373.742188 374.332031-.390626.40625zm0 0"/><path d="m400.800781 337.523438c-.242187.433593-.496093.847656-.738281 1.28125.210938-.433594.464844-.847657.738281-1.28125zm0 0"/><path d="m395.089844 346.996094-.84375 1.304687zm0 0"/><path d="m407.414062 171.722656c.417969.90625.800782 1.816406 1.242188 2.730469-.398438-.914063-.824219-1.824219-1.242188-2.730469zm0 0"/><path d="m420.648438 213.125c.230468 1.207031.441406 2.398438.65625 3.648438-.214844-1.21875-.425782-2.441407-.65625-3.648438zm0 0"/><path d="m418.464844 203.179688c.253906 1 .464844 2.007812.695312 3.015624-.230468-1.007812-.441406-2.015624-.695312-3.015624zm0 0"/><path d="m423.640625 259.085938c-.066406 1.109374-.167969 2.207031-.25 3.300781.082031-1.09375.183594-2.191407.25-3.300781zm0 0"/><path d="m411.574219 181.578125c.289062.746094.601562 1.480469.882812 2.234375-.28125-.753906-.59375-1.488281-.882812-2.234375zm0 0"/><path d="m422.3125 223.386719c.160156 1.25.328125 2.496093.472656 3.753906-.144531-1.257813-.304687-2.503906-.472656-3.753906zm0 0"/><path d="m423.433594 234.234375c.078125 1.105469.191406 2.195313.246094 3.304687-.0625-1.109374-.167969-2.199218-.246094-3.304687zm0 0"/><path d="m394.246094 348.300781.84375-1.304687c1.710937-2.679688 3.367187-5.417969 4.941406-8.191406.242188-.433594.496094-.847657.738281-1.28125 3.53125-6.328126 6.683594-12.863282 9.4375-19.566407.28125-.679687.546875-1.367187.800781-2.050781 1.039063-2.628906 2.03125-5.292969 2.953126-8 .3125-.894531.625-1.789062.917968-2.695312.914063-2.808594 1.761719-5.640626 2.546875-8.496094.167969-.621094.367188-1.238282.527344-1.863282.910156-3.472656 1.726563-6.992187 2.398437-10.535156.144532-.738281.257813-1.472656.390626-2.207031.523437-2.800781.992187-5.601563 1.386718-8.457031.160156-1.152344.304688-2.304688.4375-3.457032.3125-2.589843.5625-5.191406.800782-7.816406.082031-1.09375.183593-2.191406.25-3.304687.214843-3.652344.359374-7.335938.359374-11.046875 0-3.527344-.121093-7.023438-.320312-10.496094-.054688-1.109375-.167969-2.199219-.25-3.304688-.175781-2.398437-.382812-4.742187-.644531-7.09375-.144531-1.257812-.3125-2.503906-.472657-3.753906-.304687-2.214844-.632812-4.421875-1.007812-6.613281-.21875-1.21875-.425781-2.402344-.65625-3.648437-.449219-2.328126-.953125-4.632813-1.488281-6.929688-.234375-1.007812-.441407-2.015625-.695313-3.015625-1.640625-6.5625-3.648437-13.027344-6.007812-19.367187-.28125-.753907-.59375-1.488282-.882813-2.234376-.925781-2.398437-1.898437-4.773437-2.917969-7.125-.402343-.914062-.800781-1.824218-1.242187-2.730468-.996094-2.191406-2.035156-4.363282-3.117187-6.511719-.449219-.871094-.890626-1.742187-1.34375-2.605469-1.207032-2.304687-2.464844-4.574218-3.769532-6.808594-.359375-.625-.710937-1.257812-1.082031-1.882812-3.480469-5.839844-7.28125-11.484375-11.390625-16.902344l-.582031-.742187c-1.839844-2.402344-3.734375-4.75-5.679688-7.050781-.441406-.519532-.890625-1.023438-1.335937-1.535157-1.789063-2.0625-3.617188-4.085937-5.488282-6.0625l-1.417968-1.488281c-2.015625-2.082031-4.078125-4.113281-6.183594-6.097656-.328125-.304688-.640625-.625-.96875-.917969-5.078125-4.714844-10.421875-9.132813-16-13.242187-1.007812-.742188-2.039062-1.457032-3.0625-2.175782-.59375-.421875-1.175781-.847656-1.777344-1.261718l-56.191406 47.605468-25.601562 19.199219c-4.015626 3.035156-6.382813 7.769531-6.398438 12.800781v8c.066406 8.808594 7.191406 15.933594 16 16 4.417969 0 8 3.582032 8 8v22.082032c.003906 6.070312 3.441406 11.617187 8.878906 14.320312l32 16c4.484375 2.238281 9.757813 2.238281 14.242188 0l8.542968-4.257812 11.199219-5.601563c3.078125-1.515625 6.777344-.90625 9.199219 1.523437l9.601562 9.597657c1.472657 1.496093 2.304688 3.503906 2.320313 5.601562v17.597657c-.007813 2.054687-.386719 4.085937-1.121094 6l-10.863281 27.058593c-2.414062 6.0625-8.273438 10.050781-14.800781 10.078125h-11.277344c-6.074219.003906-11.621094 3.445313-14.320313 8.878906l-3.679687 7.203126c-4.902344 9.894531-4.386719 21.609374 1.359375 31.039062l13.757812 22.398438 3.511719 5.824218c12.722657-8.09375 24.40625-17.710937 34.792969-28.640625l.390625-.40625c7.605469-8.046875 14.46875-16.757812 20.511719-26.03125zm0 0"/><path d="m135.152344 399.234375c-.800782-.542969-1.558594-1.101563-2.335938-1.664063zm0 0"/><path d="m143.574219 404.746094c-.75-.460938-1.484375-.957032-2.238281-1.429688.753906.472656 1.488281.96875 2.238281 1.429688zm0 0"/><path d="m117.832031 385.578125-.390625-.34375zm0 0"/><path d="m95.816406 362.285156-.113281-.152344zm0 0"/><path d="m126.753906 393.003906-1.832031-1.449218zm0 0"/><path d="m172 394.730469c2.621094-1.75 5.699219-2.6875 8.847656-2.695313h20.527344c4.242188 0 8.3125-1.6875 11.3125-4.6875l22.625-22.625c3-3 4.6875-7.066406 4.6875-11.3125v-36.957031c0-2.890625-.785156-5.730469-2.273438-8.210937l-17.054687-28.527344c-2.902344-4.765625-8.082031-7.679688-13.664063-7.679688h-22.449218c-5.347656 0-10.34375 2.675782-13.3125 7.128906l-8.847656 13.3125c-1.484376 2.222657-3.980469 3.558594-6.65625 3.558594h-19.742188c-4.417969 0-8 3.582032-8 8v15.28125c0 5.4375-2.757812 10.5-7.328125 13.449219l-31.246094 20.949219c2.015625 2.875 4.109375 5.679687 6.277344 8.417968l.113281.152344c6.539063 8.246094 13.765625 15.925782 21.597656 22.949219l.394532.34375c2.3125 2.058594 4.679687 4.042969 7.085937 5.976563l1.832031 1.449218c1.992188 1.550782 4.011719 3.066406 6.066407 4.542969.800781.5625 1.550781 1.121094 2.335937 1.664063 2.03125 1.410156 4.09375 2.769531 6.183594 4.105468.75.472656 1.488281.96875 2.238281 1.429688 2.816407 1.738281 5.671875 3.417968 8.585938 5.011718zm0 0"/><path d="m336.398438 41.8125-28.277344-28.289062c-6.25-6.25-16.382813-6.25-22.632813 0s-6.25 16.382812 0 22.632812l28.289063 28.28125 39.597656 39.597656 39.59375 39.601563 28.289062 28.277343 11.308594 11.320313c6.25 6.25 16.382813 6.25 22.632813 0 6.25-6.246094 6.25-16.378906 0-22.628906l-11.3125-11.3125-67.886719-67.882813zm0 0"/><path d="m308.960938 146.261719c-.535157 9.121093 2.855468 18.039062 9.320312 24.503906l6.808594 6.804687 28.285156-73.535156-39.597656-39.597656zm0 0"/><path d="m449.535156 53.125-6.808594-6.808594c-6.460937-6.464844-15.378906-9.855468-24.503906-9.320312l-81.824218 4.800781 39.601562 39.613281zm0 0"/><path d="m392.96875 182.261719c0 4.242187 1.6875 8.308593 4.6875 11.308593l6.632812 6.632813 16.96875-28.289063-28.289062-28.277343zm0 0"/><path d="m392.96875 143.636719 28.289062 28.277343zm0 0"/><path d="m465.535156 125.691406c-3-3-7.066406-4.6875-11.3125-4.6875h-38.621094l28.277344 28.289063 28.289063-16.96875zm0 0"/></g><path d="m432 248.035156c.003906-11.109375-.957031-22.199218-2.863281-33.144531l-15.761719 2.753906c11.734375 67.25-16.476562 135.21875-72.382812 174.390625l-12.886719-21.039062c-4.359375-7.054688-4.738281-15.867188-1.007813-23.273438l3.636719-7.269531c1.347656-2.714844 4.121094-4.429687 7.152344-4.417969h11.28125c9.824219.03125 18.667969-5.953125 22.289062-15.085937l10.824219-27.074219c1.140625-2.832031 1.726562-5.863281 1.71875-8.917969v-17.601562c.011719-4.246094-1.675781-8.324219-4.6875-11.320313l-9.601562-9.597656c-4.867188-4.875-12.308594-6.082031-18.472657-3l-19.6875 9.847656c-2.25 1.125-4.898437 1.125-7.152343 0l-32-16c-2.703126-1.351562-4.40625-4.117187-4.398438-7.136718v-22.113282c0-8.835937-7.164062-16-16-16-4.417969 0-8-3.582031-8-8v-8c0-2.515625 1.1875-4.886718 3.199219-6.398437l25.601562-19.199219-9.601562-12.800781-25.597657 19.199219c-6.027343 4.546874-9.582031 11.652343-9.601562 19.199218v8c0 13.253906 10.746094 24 24 24v22.113282c-.03125 9.097656 5.113281 17.421874 13.265625 21.464843l32 16c6.761719 3.363281 14.707031 3.363281 21.46875 0l19.691406-9.839843 9.597657 9.597656v17.601562c.003906 1.015625-.195313 2.023438-.574219 2.96875l-10.832031 27.078125c-1.203126 3.046875-4.152344 5.042969-7.425782 5.03125h-11.28125c-9.097656-.03125-17.421875 5.113281-21.460937 13.265625l-3.640625 7.273438c-6.21875 12.339844-5.585938 27.027344 1.671875 38.789062l13.039062 21.289063c-49.28125 28.371093-109.261719 31.082031-160.902343 7.28125l9.816406-6.554688c1.304687-.875 2.839844-1.347656 4.414062-1.359375h20.519532c6.371093.019532 12.484374-2.511718 16.976562-7.03125l22.625-22.625c4.515625-4.492187 7.050781-10.605468 7.03125-16.976562v-36.949219c0-4.335937-1.175781-8.589844-3.398438-12.3125l-17.089843-28.578125c-4.371094-7.136719-12.132813-11.5-20.503907-11.527344h-22.449218c-8.035156-.007812-15.542969 4.003906-20 10.6875l-8.839844 13.3125h-19.71875c-8.835938 0-16 7.164063-16 16v15.28125c0 2.714844-1.378906 5.246094-3.664062 6.71875l-24.960938 16.097656c-17.902344-28.117187-27.402344-60.765624-27.375-94.097656 0-2.679687.078125-5.34375.199219-8h13.914062c3.03125-.007812 5.804688 1.707032 7.152344 4.425782l9.367187 18.773437c2.707032 5.417969 8.253907 8.828125 14.3125 8.800781h8.445313c5.027344.007813 9.765625-2.34375 12.792969-6.355468 3.03125-4.011719 4-9.210938 2.617187-14.042969l-10.191406-35.601563h15.789063c5.453124 0 10.738281-1.855468 14.992187-5.261718l26.113281-20.890626c8.410156-6.75 11.296875-18.273437 7.0625-28.191406l-13.695312-32c-1.578125-3.679687-.191406-7.957031 3.242187-10.015625l20.144531-12.085937c7.300782-4.402344 11.734376-12.339844 11.652344-20.867188l-.132812-11.703125c25.800781-4.84375 52.363281-3.84375 77.726562 2.929688l4.097656-15.425781c-79.453124-21.246094-163.613281 10.46875-209.28125 78.867187-45.667968 68.398437-42.703124 158.285156 7.375 223.523437 50.078126 65.242188 136.144532 91.339844 214.023438 64.902344s130.269531-99.539062 130.28125-181.78125zm-240.199219-169.230468.09375 8.144531c.035157 2.84375-1.445312 5.488281-3.886719 6.949219l-20.152343 12.089843c-10.257813 6.207031-14.394531 19.011719-9.703125 30.046875l13.695312 32c1.417969 3.304688.457032 7.152344-2.351562 9.402344l-26.113282 20.886719c-1.417968 1.117187-3.175781 1.71875-4.984374 1.710937h-15.789063c-5.027344-.007812-9.765625 2.347656-12.792969 6.359375-3.03125 4.007813-4 9.210938-2.617187 14.042969l10.191406 35.597656h-8.445313l-9.371093-18.734375c-4.039063-8.152343-12.363281-13.296875-21.460938-13.265625h-12.433593c9.632812-69.085937 59.066406-126.007812 126.121093-145.230468zm-91.242187 276.429687 24.449218-15.757813c6.863282-4.40625 11.003907-12.007812 10.992188-20.160156v-15.28125h19.71875c5.351562 0 10.347656-2.675781 13.3125-7.128906l8.871094-13.308594c1.484375-2.226562 3.984375-3.5625 6.65625-3.5625h22.449218c2.769532.003906 5.34375 1.4375 6.800782 3.792969l17.054687 28.527344c.746094 1.238281 1.136719 2.652343 1.136719 4.097656v36.949219c0 2.125-.839844 4.164062-2.34375 5.664062l-22.625 22.625c-1.5 1.503906-3.539062 2.347656-5.664062 2.34375h-20.519532c-4.742187 0-9.382812 1.40625-13.328125 4.039063l-17.0625 11.394531c-19.277343-11.457031-36.210937-26.46875-49.898437-44.234375zm0 0" fill="#1e81ce"/><path d="m16.542969 255.820312-15.957031 1.113282c.375 5.414062.941406 10.894531 1.6875 16.277344l15.855468-2.191407c-.695312-5.023437-1.234375-10.183593-1.585937-15.199219zm0 0" fill="#1e81ce"/><path d="m40.800781 137.453125-14.214843-7.34375c-2.496094 4.796875-4.859376 9.816406-7.019532 14.824219l14.691406 6.34375c2.03125-4.671875 4.238282-9.320313 6.542969-13.824219zm0 0" fill="#1e81ce"/><path d="m20.734375 286.074219-15.664063 3.289062c1.121094 5.335938 2.402344 10.679688 3.90625 15.90625l15.390626-4.34375c-1.367188-4.890625-2.589844-9.867187-3.632813-14.851562zm0 0" fill="#1e81ce"/><path d="m20.535156 194.964844-15.679687-3.199219c-1.078125 5.300781-2 10.742187-2.71875 16.148437l15.855469 2.121094c.671874-5.046875 1.527343-10.121094 2.542968-15.070312zm0 0" fill="#1e81ce"/><path d="m56.664062 111.308594-13.089843-9.214844c-3.117188 4.4375-6.132813 9.054688-8.957031 13.71875l13.679687 8.296875c2.640625-4.363281 5.457031-8.664063 8.367187-12.800781zm0 0" fill="#1e81ce"/><path d="m28.6875 165.515625-15.085938-5.3125c-1.816406 5.160156-3.464843 10.402344-4.914062 15.632813l15.425781 4.265624c1.335938-4.867187 2.878907-9.769531 4.574219-14.585937zm0 0" fill="#1e81ce"/><path d="m16.488281 225.242188-16-1.039063c-.324219 5.222656-.488281 10.5-.488281 15.832031v.511719l16-.511719c0-4.964844.164062-9.894531.488281-14.792968zm0 0" fill="#1e81ce"/><path d="m29.015625 315.484375-15.054687 5.390625c1.839843 5.136719 3.863281 10.25 6.03125 15.199219l14.664062-6.398438c-2.023438-4.632812-3.921875-9.398437-5.640625-14.191406zm0 0" fill="#1e81ce"/><path d="m75.910156 87.546875-11.71875-10.886719c-3.703125 4-7.320312 8.152344-10.734375 12.359375l12.429688 10.082031c3.183593-3.9375 6.5625-7.824218 10.023437-11.554687zm0 0" fill="#1e81ce"/><path d="m208.800781 18.203125-2.242187-15.855469c-5.359375.746094-10.789063 1.695313-16.132813 2.816406l3.285157 15.671876c4.984374-1.0625 10.058593-1.945313 15.089843-2.632813zm0 0" fill="#1e81ce"/><path d="m239.265625 16.035156-.066406-15.9999998c-5.472657 0-10.976563.2187498-16.359375.6015628l1.136718 16c5.050782-.402344 10.144532-.601563 15.289063-.601563zm0 0" fill="#1e81ce"/><path d="m178.863281 24.484375-4.34375-15.398437c-5.207031 1.46875-10.464843 3.148437-15.597656 5l5.40625 15.054687c4.792969-1.71875 9.679687-3.28125 14.535156-4.65625zm0 0" fill="#1e81ce"/><path d="m98.191406 66.636719-10.128906-12.382813c-4.207031 3.4375-8.351562 7.070313-12.308594 10.789063l10.949219 11.664062c3.695313-3.472656 7.570313-6.863281 11.488281-10.070312zm0 0" fill="#1e81ce"/><path d="m150.144531 34.789062-6.402343-14.65625c-4.949219 2.167969-9.910157 4.550782-14.75 7.078126l7.40625 14.175781c4.496093-2.359375 9.121093-4.550781 13.746093-6.597657zm0 0" fill="#1e81ce"/><path d="m123.089844 48.925781-8.371094-13.640625c-4.640625 2.847656-9.230469 5.886719-13.648438 9.03125l9.273438 13.039063c4.128906-2.917969 8.410156-5.777344 12.746094-8.429688zm0 0" fill="#1e81ce"/><path d="m329.398438 445.484375 6.402343 14.664063c4.984375-2.167969 9.941407-4.542969 14.757813-7.046876l-7.359375-14.195312c-4.511719 2.335938-9.152344 4.554688-13.800781 6.578125zm0 0" fill="#1e81ce"/><path d="m403.742188 392.882812 11.699218 10.929688c3.710938-4 7.335938-8.128906 10.765625-12.34375l-12.40625-10.105469c-3.207031 3.9375-6.601562 7.816407-10.058593 11.519531zm0 0" fill="#1e81ce"/><path d="m381.425781 413.757812 10.109375 12.398438c4.207032-3.433594 8.351563-7.054688 12.328125-10.761719l-10.917969-11.695312c-3.730468 3.484375-7.570312 6.835937-11.519531 10.058593zm0 0" fill="#1e81ce"/><path d="m423.054688 369.171875 13.066406 9.265625c3.136718-4.441406 6.167968-9.042969 8.992187-13.699219l-13.664062-8.316406c-2.648438 4.300781-5.464844 8.605469-8.394531 12.75zm0 0" fill="#1e81ce"/><path d="m356.488281 431.402344 8.3125 13.65625c4.625-2.824219 9.222657-5.847656 13.671875-8.992188l-9.25-13.054687c-4.117187 2.9375-8.421875 5.761719-12.734375 8.390625zm0 0" fill="#1e81ce"/><path d="m300.65625 455.722656 4.320312 15.410156c5.222657-1.464843 10.480469-3.136718 15.609376-4.960937l-5.386719-15.070313c-4.800781 1.734376-9.671875 3.261719-14.542969 4.621094zm0 0" fill="#1e81ce"/><path d="m463.488281 255.324219 15.960938 1.070312c.367187-5.421875.550781-10.925781.550781-16.359375h-16c0 5.136719-.171875 10.234375-.511719 15.289063zm0 0" fill="#1e81ce"/><path d="m459.367188 285.589844 15.671874 3.199218c1.097657-5.304687 2.023438-10.746093 2.761719-16.144531l-15.855469-2.152343c-.6875 5.078124-1.554687 10.144531-2.578124 15.097656zm0 0" fill="#1e81ce"/><path d="m451.152344 315.011719 15.070312 5.351562c1.832032-5.152343 3.496094-10.398437 4.953125-15.617187l-15.414062-4.300782c-1.363281 4.855469-2.914063 9.757813-4.609375 14.566407zm0 0" fill="#1e81ce"/><path d="m438.953125 343.058594 14.207031 7.371094c2.503906-4.800782 4.871094-9.800782 7.039063-14.800782l-14.671875-6.402344c-2.023438 4.679688-4.238282 9.328126-6.574219 13.832032zm0 0" fill="#1e81ce"/><path d="m41.238281 343.4375-14.183593 7.40625c2.519531 4.800781 5.234374 9.601562 8.058593 14.230469l13.6875-8.34375c-2.671875-4.308594-5.199219-8.78125-7.5625-13.292969zm0 0" fill="#1e81ce"/><path d="m88.800781 426.4375c4.238281 3.445312 8.632813 6.773438 13.054688 9.894531l9.199219-13.097656c-4.164063-2.941406-8.230469-6.019531-12.199219-9.230469zm0 0" fill="#1e81ce"/><path d="m144.648438 460.347656c4.96875 2.152344 10.105468 4.175782 15.273437 6.007813l5.335937-15.085938c-4.800781-1.714843-9.601562-3.59375-14.234374-5.601562zm0 0" fill="#1e81ce"/><path d="m115.542969 445.285156c4.671875 2.839844 9.480469 5.535156 14.296875 8l7.351562-14.21875c-4.496094-2.320312-8.976562-4.839844-13.34375-7.488281zm0 0" fill="#1e81ce"/><path d="m64.800781 404.09375c3.734375 4 7.640625 7.878906 11.589844 11.566406l10.914063-11.710937c-3.695313-3.441407-7.34375-7.074219-10.832032-10.792969zm0 0" fill="#1e81ce"/><path d="m57.175781 369.5-13.054687 9.246094c3.144531 4.433594 6.480468 8.800781 9.917968 13.027344l12.359376-10.136719c-3.199219-3.921875-6.292969-8-9.222657-12.136719zm0 0" fill="#1e81ce"/><path d="m270.742188 461.941406 2.167968 15.847656c5.371094-.738281 10.800782-1.664062 16.144532-2.777343l-3.246094-15.664063c-5.007813 1.03125-10.054688 1.90625-15.066406 2.59375zm0 0" fill="#1e81ce"/><path d="m207.609375 477.867188c5.351563.722656 10.832031 1.273437 16.292969 1.601562l1.066406-16c-5.113281-.335938-10.226562-.855469-15.199219-1.527344zm0 0" fill="#1e81ce"/><path d="m240.238281 464.035156v16c5.480469 0 10.984375-.191406 16.371094-.566406l-1.097656-16c-5.039063.378906-10.128907.566406-15.273438.566406zm0 0" fill="#1e81ce"/><path d="m175.542969 471.277344c5.257812 1.460937 10.617187 2.757812 15.921875 3.847656l3.199218-15.671875c-4.953124-1.015625-9.953124-2.226563-14.847656-3.585937zm0 0" fill="#1e81ce"/><path d="m305.601562 67.546875-4.601562 78.242187c-.667969 11.40625 3.570312 22.554688 11.648438 30.640626l15.519531 15.503906 28.246093-73.496094 28.554688 28.550781v35.3125c-.011719 6.355469 2.519531 12.457031 7.03125 16.933594l13.871094 13.882813 16.96875-28.28125 4.070312 4.0625c6.027344 6.242187 14.949219 8.742187 23.34375 6.546874 8.390625-2.195312 14.941406-8.75 17.140625-17.140624 2.195313-8.390626-.308593-17.316407-6.546875-23.339844l-4.0625-4.066406 28.285156-16.972657-13.871093-13.890625c-4.488281-4.519531-10.597657-7.050781-16.96875-7.03125h-35.328125l-28.503906-28.542968 73.539062-28.28125-15.554688-15.527344c-8.074218-8.085938-19.226562-12.320313-30.628906-11.640625l-78.242187 4.601562-25.734375-25.746093c-9.5-9.0625-24.445313-9.0625-33.945313 0-9.375 9.375-9.375 24.570312 0 33.945312zm16.527344 95.503906c-3.664062-4.625-5.5-10.4375-5.160156-16.328125l3.765625-64 23.328125 23.328125zm80.589844 24.183594c-1.128906-1.421875-1.746094-3.183594-1.75-5v-19.285156l10.230469 10.214843zm51.503906-58.253906c1.816406.003906 3.578125.621093 5 1.75l-14.09375 8.503906-10.21875-10.207031zm-35.535156-84c5.890625-.347657 11.707031 1.492187 16.328125 5.160156l-57.03125 21.933594-23.328125-23.328125zm-127.535156-25.792969c3.121094-3.117188 8.179687-3.117188 11.304687 0l147.078125 147.082031c3.117188 3.121094 3.117188 8.179688 0 11.300781-3.164062 3.027344-8.148437 3.027344-11.3125 0l-147.070312-147.078124c-3.117188-3.125-3.117188-8.179688 0-11.304688zm0 0" fill="#1e81ce"/></svg>